<?xml version="1.0" encoding="utf-8"?>
<!-- Generator: Adobe Illustrator 27.9.0, SVG Export Plug-In . SVG Version: 6.00 Build 0)  -->
<svg version="1.1" id="Calque_1" xmlns="http://www.w3.org/2000/svg" xmlns:xlink="http://www.w3.org/1999/xlink" x="0px" y="0px"
	 width="366.8037px" height="198.7822px" viewBox="0 0 366.8037 198.7822" style="enable-background:new 0 0 366.8037 198.7822;"
	 xml:space="preserve">
<style type="text/css">
	.fondLogo{fill-rule:evenodd;clip-rule:evenodd;fill:none;}
	.st0{fill:#2D28BE;}
	.st1{fill:#FFE200;}
	.st2{fill:#FEFEFE;}
</style>
<path class="fondLogo" d="M366.6172,110.852l-0.625-2.5014c-0.0811-0.3247-0.1875-0.6426-0.3203-0.9502
	c-0.7246-1.687-1.4746-2.8731-2.3779-4.1353c-0.1348-0.1889-0.2803-0.3701-0.4366-0.5429l-1.4072-1.5635
	c-0.1387-0.1548-0.2861-0.3023-0.4394-0.4424c-1.917-1.7427-3.8682-3.1982-6.3184-4.7129l-0.666-0.438
	c-0.8213-0.5356-1.8018-1.1753-2.3526-1.709c0.5176-0.7954,1.2149-1.5107,2.3721-2.4585c0.0899-0.0732,0.1777-0.1499,0.2637-0.228
	c1.9951-1.8286,4.0586-3.7197,5.8935-5.9204c1.0108-1.2148,1.7598-2.3696,2.5039-3.8613c0.1114-0.2227,0.209-0.4512,0.293-0.6856
	l0.7822-2.187c0.1475-0.4131,0.252-0.8413,0.3096-1.2763l0.3125-2.3453c0.0703-0.5297,0.0723-1.0664,0.0068-1.5971l-0.3125-2.501
	c-0.0468-0.3691-0.1259-0.7334-0.2363-1.0884l-0.7822-2.501c-0.1543-0.4936-0.3701-0.9658-0.6406-1.4067l-1.25-2.0312
	c-0.2559-0.4146-0.5586-0.7974-0.9024-1.1416l-1.7197-1.7193c-0.1328-0.1328-0.2715-0.2593-0.415-0.3794
	c-1.378-1.1489-2.6788-1.9448-4.3506-2.6616c-0.1582-0.0674-0.3194-0.1289-0.4825-0.1836l-1.875-0.626
	c-0.2705-0.0903-0.5468-0.1616-0.8271-0.2143c-2.3262-0.4351-4.3457-0.5342-6.2988-0.6299
	c-0.5391-0.0264-1.086-0.0527-1.6504-0.0879c-0.1289-0.0083-0.2588-0.0122-0.3877-0.0122c-0.4531,0-0.832-0.0108-1.1475-0.0288
	c0.0401-0.082,0.0821-0.1665,0.125-0.2534c1.3252-2.4864,2.6924-5.0601,3.7764-8.1289c0.0127-0.0342,0.0244-0.0684,0.0351-0.1026
	c0.4854-1.4516,0.7022-2.7998,0.8829-4.0566c0.0615-0.4322,0.0781-0.8692,0.0498-1.3047l-0.1573-2.3457
	c-0.0273-0.4024-0.0937-0.8013-0.1972-1.1909l-0.625-2.3423c-0.0772-0.2881-0.1739-0.5698-0.291-0.8443l-0.4688-1.0961
	c-0.2061-0.4815-0.4717-0.9351-0.791-1.3501l-1.5625-2.0313c-0.2197-0.2856-0.4639-0.5518-0.7295-0.7954l-1.876-1.7192
	c-0.3428-0.3135-0.7197-0.5884-1.123-0.8184l-2.1885-1.249c-0.4316-0.2466-0.8916-0.4405-1.3691-0.5777l-0.4522-0.1318
	c-1.0371-0.3042-2.2139-0.6494-3.7744-0.8452c-0.2588-0.0327-0.5176-0.0488-0.7774-0.0488c-0.1494,0-0.2978,0.0053-0.4472,0.0161
	l-2.2168,0.1596c-2.5215,0.1929-4.792,0.7427-7.3301,1.7774c-0.4248,0.1431-0.8457,0.2886-1.2656,0.4336
	c-1.7676,0.6113-3.3223,1.1489-4.7578,1.3237c-0.2549-0.6987-0.335-1.8071-0.4219-3.019c-0.1621-2.6099-0.3467-5.5679-1.1123-8.6294
	c-0.0166-0.0655-0.0342-0.1299-0.0527-0.1949c-0.418-1.4682-0.8243-2.6259-1.3565-3.8706c-0.1504-0.3525-0.333-0.6899-0.5459-1.0083
	l-1.251-1.875c-0.2773-0.416-0.6035-0.7968-0.9726-1.1347l-1.875-1.7198c-0.2627-0.2412-0.5459-0.4594-0.8457-0.6523l-2.1885-1.4048
	c-0.4687-0.3003-0.9746-0.5371-1.5059-0.7031l-2.5009-0.7832c-0.3711-0.1162-0.753-0.1978-1.1397-0.2427l-2.6572-0.3105
	c-0.2402-0.0284-0.4815-0.0425-0.7236-0.0425c-0.1368,0-0.2745,0.0044-0.4112,0.0137l-2.3437,0.1547
	c-0.6084,0.0401-1.208,0.1695-1.7783,0.3833l-0.4776,0.1778c-1.1406,0.4228-2.3203,0.8598-3.708,1.6523
	c-0.2002,0.1143-0.3935,0.2393-0.5801,0.375c0,0-1.8037,1.3145-1.8457,1.3467c-2.4902,1.9131-4.3222,4.0786-6.0947,6.1724
	c0,0-0.2246,0.2666-0.2471,0.2929c-0.4306,0.5269-1.2363,1.5113-1.9394,2.0215c-1.1875-1.1377-2.2617-2.7578-3.3936-4.4643
	l-0.4004-0.6031c-1.4609-2.29-2.9131-4.0439-4.6855-5.6582c-0.9756-0.9624-2.3477-2.144-4.4024-3.041l-1.9638-0.9067
	c-0.583-0.2696-1.2041-0.4473-1.8408-0.5269l-2.501-0.313C255.582,0.0161,255.3233,0,255.0645,0
	c-0.2588,0-0.5176,0.0161-0.7745,0.0483l-2.5009,0.313c-0.3682,0.0459-0.7305,0.125-1.085,0.2354l-2.5,0.7807
	c-0.3203,0.1001-0.6318,0.2256-0.9316,0.376l-2.1875,1.0947c-0.4297,0.2154-0.834,0.4795-1.2032,0.7876
	c-1.6601,1.3843-2.6816,2.7764-3.3857,3.8345c-0.0674,0.1021-0.1328,0.2056-0.1943,0.311l-1.0948,1.875
	c-0.2168,0.3721-0.3945,0.7652-0.5312,1.1739c-0.791,2.376-1.2969,4.355-1.6309,6.3584l-0.167,0.9726
	c-0.2851,1.6802-0.5546,3.27-1.0713,4.1509c-0.0839,0.1123-0.1367,0.1631-0.1386,0.1709c-0.002,0.0005-0.0049,0.001-0.0078,0.002
	c-1.2217-0.2369-2.6582-0.9327-4.2959-1.7261c-0.3731-0.1807-0.7471-0.3618-1.125-0.5405
	c-1.4366-0.7862-2.9571-1.4893-4.8975-2.2662c-0.0449-0.018-0.1221-0.0473-0.168-0.0644c-1.4443-0.5391-3.2412-1.21-5.5966-1.4448
	c-0.2051-0.0205-0.4122-0.0308-0.6182-0.0308h-2.1865c-0.3838,0-0.7676,0.0357-1.1446,0.106l-2.5019,0.4672
	c-0.4531,0.0845-0.8955,0.2193-1.3184,0.4009l-1.0937,0.4702c-0.2149,0.0928-0.4248,0.1968-0.628,0.313l-1.0937,0.6245
	c-0.333,0.1895-0.6465,0.4092-0.9395,0.6563l-2.0312,1.7192c-0.2754,0.2334-0.5303,0.4908-0.7617,0.7681l-1.5635,1.877
	c-0.2334,0.2802-0.4424,0.5805-0.623,0.8974l-0.625,1.0938c-0.1661,0.289-0.3077,0.5908-0.4249,0.9028
	c-0.4892,1.3057-0.7353,2.3594-0.9521,3.2891c-0.0605,0.2627-0.124,0.5336-0.1963,0.8242c-0.125,0.4961-0.1875,1.0053-0.1875,1.5166
	v2.0307c0,0.3179,0.0244,0.6358,0.0733,0.9497c0.33,2.147,0.8095,4.0914,1.5937,6.4668
	c-10.8936,1.4175-22.0498,2.1348-33.2539,2.1348c-27.104,0-53.646-4.1372-74.7471-11.6509
	c-7.1294-2.706-15.2773-4.1367-23.5664-4.1367C31.7549,28.1328,0,59.8887,0,98.9219c0,39.1191,31.7549,70.9443,70.7871,70.9443
	c7.8467,0,15.9766-1.4228,23.5073-4.1142c21.1123-7.5264,47.6788-11.6719,74.8062-11.6719c6.4038,0,12.9077,0.2422,19.3535,0.7207
	c0.1192,0.0605,0.2417,0.123,0.3687,0.1865c0.3071,0.1533,0.6259,0.2803,0.9541,0.3818l2.0317,0.6241
	c0.1719,0.0527,0.3457,0.0976,0.5215,0.1357c2.8349,0.6084,5.2383,0.6084,7.5615,0.6084c0.9531,0,1.9053-0.0254,2.8535-0.0518
	c0.8242-0.0234,1.6455-0.0468,2.461-0.0468c0.0947,0,0.1894,0,0.2841,0.0009c0.9405,0.1348,1.8731,0.2745,2.8018,0.419
	c0.1797,1.0674-0.1133,2.9287-0.3379,4.3496c-0.0185,0.1182-0.0342,0.2363-0.0459,0.3555c-0.0781,0.791-0.1572,1.54-0.2363,2.291
	c-0.0772,0.7324-0.1543,1.4668-0.2246,2.1699c-0.2246,2.0254-0.0342,3.7305,0.1328,5.2344l0.0342,0.2978
	c0.2685,2.1309,0.8545,3.7022,1.3925,4.958c0.1202,0.2793,0.2608,0.5508,0.4209,0.8106l1.25,2.0322
	c0.3028,0.4922,0.6729,0.9404,1.0987,1.3301l1.8769,1.7197c0.2608,0.2393,0.542,0.4561,0.8399,0.6475l2.1865,1.4062
	c0.4375,0.2813,0.9092,0.5069,1.4023,0.6719l2.3457,0.7813c0.3741,0.124,0.7588,0.2128,1.1495,0.2646l2.3437,0.3115
	c0.2725,0.0362,0.5469,0.0547,0.8213,0.0547c0.1377,0,0.2754-0.0049,0.4121-0.0137l2.3447-0.1552
	c0.3711-0.0244,0.7383-0.0821,1.0996-0.1719c3.1104-0.7773,5.5049-1.9404,8.1504-3.4512l3.2774-1.872
	c0.0644-0.0372,0.1289-0.0752,0.1914-0.1143c0.9258-0.5732,2.9883-1.8506,4.0664-2.0625c0.4375,0.5869,0.8418,1.4482,1.3125,2.7656
	c0.0264,0.0733,0.0537,0.1465,0.083,0.2197c0.2227,0.5557,0.4355,1.1124,0.6484,1.668c0.7315,1.9082,1.4883,3.8809,2.6094,5.9834
	c0.0957,0.1787,0.1992,0.3526,0.3115,0.5215c0.3633,0.5459,0.7256,1.0469,1.0899,1.5469c0.2627,0.3603,0.5263,0.7197,0.7881,1.1133
	c0.3925,0.5878,0.8808,1.1044,1.4463,1.5283l1.8759,1.4072c0.2061,0.1553,0.4219,0.2969,0.6455,0.4248l2.1885,1.252
	c0.4971,0.2841,1.0313,0.499,1.5859,0.6377l2.5,0.624c0.4942,0.123,1.002,0.1855,1.5108,0.1855h2.6562
	c0.3858,0,0.7705-0.0361,1.1485-0.1064l2.501-0.4688c0.4003-0.0752,0.791-0.1894,1.1689-0.3398l2.3447-0.9385
	c0.3994-0.1601,0.7813-0.3613,1.1397-0.5996c1.3457-0.8965,2.4258-1.7852,3.6113-2.9717c0.0762-0.0762,0.1494-0.1543,0.2217-0.2334
	l1.4082-1.5635c0.2529-0.2812,0.4795-0.5839,0.6777-0.9052c1.3174-2.1416,2.4024-4.25,3.5117-6.8262
	c0.4961-1.0752,1.1309-2.4395,1.7686-3.3105c1.0185,0.5087,2.0312,1.2744,2.9902,2.0546c2.4043,2.1954,4.46,3.8077,6.6455,5.2129
	c0.1856,0.1192,0.377,0.2285,0.5752,0.3282c1.0108,0.5078,2.2686,1.1386,3.6494,1.5966c0.2422,0.0811,0.4893,0.1465,0.7403,0.1963
	l2.3437,0.4688c0.4024,0.0801,0.8125,0.1211,1.2227,0.1211c0.1367,0,0.2734-0.0049,0.4092-0.0137l2.3437-0.1543
	c0.3731-0.0244,0.7432-0.082,1.1055-0.1729l2.501-0.6259c0.4404-0.1104,0.8681-0.2686,1.2754-0.4727l2.1884-1.0947
	c0.4444-0.2217,0.8604-0.4961,1.2393-0.8174l2.0312-1.7197c0.2735-0.2315,0.5274-0.4863,0.7569-0.7617l0.7832-0.9375
	c0.1455-0.1739,0.2812-0.3565,0.4072-0.545c0.7813-1.1748,1.4287-2.3984,2.1006-3.9677c0.2148-0.502,0.3633-1.0293,0.4404-1.5703
	l0.3145-2.1905c0.3427-2.4013,0.1621-4.5498,0.0029-6.4443c-0.0381-0.4619-0.0781-0.9326-0.1104-1.417
	c-0.0117-0.1797-0.0312-0.3574-0.0585-0.5342c-0.0967-0.6269-0.21-1.3623-0.2852-2.0849c0.0771,0.0273,0.1553,0.0537,0.2334,0.0781
	c0.7197,0.2246,1.4385,0.4785,2.1621,0.7334c1.8516,0.6513,3.9502,1.3886,6.2705,1.7988c0.0674,0.0117,0.4043,0.0615,0.4043,0.0615
	c0.8291,0.1192,1.7676,0.2549,2.876,0.2549c0.6211,0,1.2148-0.042,1.8105-0.1279l2.1895-0.3125
	c0.542-0.0772,1.0703-0.2256,1.5732-0.4414l2.1875-0.9365c0.4151-0.1768,0.8096-0.3995,1.1768-0.6622l1.0937-0.7832
	c0.2032-0.1455,0.3975-0.3037,0.5821-0.4726l1.8769-1.7197c0.3955-0.3614,0.7422-0.7735,1.0322-1.2247l1.4063-2.1865
	c0.1875-0.292,0.3506-0.5986,0.4873-0.917l0.9375-2.1884c0.1309-0.3057,0.2373-0.6211,0.3174-0.9434
	c0.499-1.9951,0.499-3.4981,0.499-4.9522c0-0.2949-0.0215-0.5898-0.0625-0.8818l-0.3125-2.1875
	c-0.0303-0.2119-0.0723-0.4228-0.124-0.6308c-0.5908-2.3633-1.4912-4.4063-2.6602-6.7452c-0.2675-0.5351-0.5488-1.0713-0.831-1.6093
	c-0.7891-1.5049-1.5381-2.9327-1.8164-4.1368c0.7265-0.332,1.7754-0.5791,2.8799-0.8339c2.6835-0.5088,5.4033-1.1914,8.0849-2.0303
	c0.3174-0.0996,0.6436-0.2324,0.9414-0.3809c1.0391-0.5185,2.2158-1.1064,3.4746-1.9463c0.2588-0.1728,0.5039-0.3642,0.7334-0.5732
	l1.7188-1.5635c0.2734-0.249,0.5234-0.5205,0.748-0.8135l1.5625-2.0332c0.3477-0.4521,0.6319-0.9502,0.8438-1.4795l0.9394-2.3437
	c0.1602-0.3989,0.2783-0.8135,0.3535-1.2368l0.4688-2.6568c0.0625-0.3574,0.0947-0.7202,0.0947-1.0835v-2.5009
	C366.8037,111.854,366.7412,111.3467,366.6172,110.852z M360.5671,114.8648l-0.4688,2.6569l-0.9389,2.344l-1.5622,2.0324
	l-1.7194,1.5634c-0.9375,0.626-1.8752,1.0934-2.814,1.5622c-2.5011,0.7818-5.001,1.4078-7.5008,1.8766
	c-2.0323,0.4674-4.0647,0.9375-5.7839,2.1868c-1.7194,1.4077-2.1882,3.2828-2.0311,5.4711c0.4675,2.814,2.0311,5.3151,3.2803,7.815
	c0.9389,1.8764,1.7205,3.5957,2.1894,5.471l0.313,2.1868c0,1.2518,0,2.1895-0.313,3.44l-0.9375,2.1882l-1.4065,2.1867
	l-1.8765,1.7194l-1.0934,0.7831l-2.1881,0.9363l-2.1895,0.313c-1.0935,0.1571-2.0323,0-3.1257-0.1559
	c-2.6557-0.4688-5.158-1.5635-7.6579-2.344c-1.7194-0.6259-3.2828-1.0946-5.158-0.7817c-1.7194,0.4688-2.657,1.5622-3.1259,3.4387
	c-0.3128,2.031,0,4.2205,0.3131,6.2514c0.1558,2.3454,0.4689,4.3763,0.1558,6.5658l-0.3129,2.1869
	c-0.4688,1.0946-0.9376,2.0309-1.5623,2.9699l-0.783,0.9375l-2.031,1.7194l-2.1882,1.0948l-2.5011,0.6259l-2.344,0.1545
	l-2.3439-0.4688c-0.939-0.3116-1.8765-0.7804-2.8142-1.2506c-2.1868-1.4064-4.0633-2.9686-5.9385-4.688
	c-1.7193-1.4063-3.4386-2.6582-5.471-3.4386c-2.0323-0.4688-3.5945-0.313-5.3139,0.9375c-1.7192,1.5623-2.814,3.9076-3.7517,5.9399
	c-0.9388,2.1882-1.8751,4.0633-3.1257,6.0944l-1.4076,1.5634c-0.9377,0.9389-1.7181,1.5636-2.6571,2.1883l-2.344,0.9388
	l-2.5011,0.4688h-2.6568l-2.4998-0.6246l-2.1882-1.2518l-1.8765-1.4065c-0.6259-0.9389-1.2505-1.7193-1.8752-2.6569
	c-1.2505-2.3453-2.0324-4.6893-2.9699-7.0333c-0.7817-2.1881-1.7193-4.2205-3.4387-5.7826
	c-3.5945-2.6583-7.815-0.1571-11.0965,1.8752c-1.0948,0.6245-2.1896,1.2492-3.2829,1.8751
	c-2.1881,1.2492-4.0635,2.1882-6.5646,2.8128l-2.3451,0.1558l-2.344-0.3117l-2.3453-0.7817l-2.1869-1.4063l-1.8765-1.7195
	l-1.2505-2.0322c-0.4689-1.0934-0.7804-2.0311-0.9377-3.2803c-0.1557-1.4077-0.3115-2.6582-0.1557-4.0647
	c0.1557-1.5634,0.313-2.9699,0.4688-4.5333c0.4688-2.97,0.9375-6.0943-0.4688-8.7527c-0.4689-0.4687-0.7818-0.9375-1.2506-1.4063
	c-0.6736-0.4816-1.2297-0.8437-1.8859-1.1246c-1.4982-0.2401-3.0078-0.4709-4.5355-0.6868c-1.9982-0.0381-4.0395,0.092-6.0816,0.092
	c-2.1894,0-4.0645,0-6.2527-0.4701l-2.0323-0.6233c-0.5119-0.2563-0.938-0.4875-1.3464-0.7234
	c-6.8616-0.5434-13.931-0.8401-21.1598-0.8401c-29.6978,0-56.7373,4.8451-76.9007,12.0341
	c-6.5645,2.3453-13.9094,3.7517-21.4127,3.7517c-35.4806,0-64.551-29.0718-64.551-64.7081c0-35.6364,29.0704-64.5525,64.551-64.5525
	c7.5033,0,14.8482,1.2519,21.4127,3.753c20.1634,7.1891,47.2029,12.0343,76.9007,12.0343c14.4175,0,28.2104-1.1639,40.9338-3.1781
	c0.0051-0.1387,0.0164-0.2654,0.0164-0.4165c-0.3129-2.344-1.0948-4.3764-1.7193-6.5644c-0.626-1.8753-1.0947-3.5946-1.4077-5.6283
	v-2.031c0.313-1.2505,0.4688-2.1868,0.9388-3.4387l0.6248-1.0934l1.5634-1.8766l2.0311-1.7191l1.0946-0.6248l1.0934-0.47
	l2.5025-0.4675h2.1868c1.5635,0.1558,2.8128,0.6259,4.0648,1.0934c1.5634,0.626,2.9698,1.2519,4.3762,2.0323
	c2.6569,1.2505,5.158,2.6582,7.9708,2.97c2.3453,0,4.2191-0.9377,5.6268-2.97c1.4065-2.1882,1.7194-4.845,2.1882-7.502
	c0.313-1.8753,0.7817-3.5946,1.4065-5.471l1.0946-1.8753c0.6246-0.9375,1.2506-1.718,2.1882-2.5011l2.1882-1.0946l2.4997-0.7806
	l2.5012-0.3128l2.5011,0.3128l2.0323,0.9389c1.0934,0.4675,1.8752,1.0934,2.657,1.8739c1.5621,1.4064,2.6569,2.8141,3.7503,4.5334
	c1.5636,2.344,3.127,4.8439,5.3152,6.7216c1.7181,1.0934,3.2815,1.5609,5.3126,1.0934c2.1894-0.7816,3.7516-2.5011,5.1593-4.2204
	c1.7194-2.031,3.2816-3.9088,5.3139-5.4697l1.7194-1.2519c1.0934-0.6246,2.0323-0.9375,3.2828-1.4064l2.344-0.1545l2.657,0.3104
	l2.5011,0.783l2.1881,1.4051l1.8753,1.7194l1.2505,1.8752c0.4687,1.0959,0.7817,2.0336,1.0935,3.127
	c0.6257,2.5012,0.7817,5.0023,0.9375,7.5019c0.1571,2.1883,0.313,4.2219,1.4077,6.0971c1.0934,1.8751,2.8127,2.657,5.0023,2.8127
	c2.9686-0.1557,5.6254-1.2505,8.4396-2.1881c1.8751-0.7804,3.5945-1.2506,5.6268-1.4063l2.1868-0.1572
	c1.252,0.1572,2.1881,0.4688,3.2829,0.7831l2.1882,1.2492l1.8765,1.7193l1.5621,2.0311l0.4688,1.096l0.6246,2.3427l0.1573,2.3453
	c-0.1573,1.0934-0.3117,2.0311-0.6247,2.9699c-0.9389,2.6569-2.1881,5.0009-3.4387,7.3462
	c-0.7819,1.5623-1.4064,2.9686-1.4064,4.6879c0,1.4077,0.4674,2.1882,1.5622,3.1271c1.8765,1.4051,4.2205,1.5636,6.4087,1.5636
	c2.5011,0.1558,4.6892,0.1558,7.189,0.6232l1.8752,0.626c1.096,0.47,1.8765,0.9375,2.814,1.7194l1.7194,1.7193l1.2505,2.031
	l0.7819,2.5011l0.3129,2.5011l-0.3129,2.3453l-0.7819,2.1868c-0.4686,0.9389-0.9375,1.7194-1.7193,2.6583
	c-1.5635,1.8751-3.4387,3.5931-5.3138,5.3126c-1.7194,1.4076-3.1258,2.8141-4.2205,4.8463
	c-0.7819,1.8752-0.7819,3.4388,0.1558,5.3139c1.2519,2.0323,3.4387,3.2829,5.3139,4.5322c2.0323,1.2518,3.7517,2.5012,5.471,4.0646
	l1.4077,1.5636c0.7817,1.0934,1.2492,1.8752,1.7194,2.9685l0.6246,2.5011V114.8648z"/>
<path class="st0" d="M359.9425,109.8625c-0.4702-1.0933-0.9377-1.8751-1.7194-2.9685l-1.4077-1.5636
	c-1.7193-1.5634-3.4387-2.8128-5.471-4.0646c-1.8752-1.2493-4.062-2.4999-5.3139-4.5322c-0.9377-1.8751-0.9377-3.4387-0.1558-5.3139
	c1.0947-2.0322,2.5011-3.4387,4.2205-4.8463c1.8751-1.7195,3.7503-3.4375,5.3138-5.3126c0.7818-0.9389,1.2507-1.7194,1.7193-2.6583
	l0.7819-2.1868l0.3129-2.3453l-0.3129-2.5011l-0.7819-2.5011l-1.2505-2.031l-1.7194-1.7193
	c-0.9375-0.7819-1.718-1.2494-2.814-1.7194l-1.8752-0.626c-2.4998-0.4674-4.6879-0.4674-7.189-0.6232
	c-2.1882,0-4.5322-0.1585-6.4087-1.5636c-1.0948-0.9389-1.5622-1.7194-1.5622-3.1271c0-1.7193,0.6245-3.1256,1.4064-4.6879
	c1.2506-2.3453,2.4998-4.6893,3.4387-7.3462c0.313-0.9388,0.4674-1.8765,0.6247-2.9699l-0.1573-2.3453l-0.6246-2.3427l-0.4688-1.096
	l-1.5621-2.0311l-1.8765-1.7193l-2.1882-1.2492c-1.0948-0.3143-2.0309-0.6259-3.2829-0.7831l-2.1868,0.1572
	c-2.0323,0.1557-3.7517,0.6259-5.6268,1.4063c-2.8142,0.9376-5.471,2.0324-8.4396,2.1881
	c-2.1896-0.1557-3.9089-0.9376-5.0023-2.8127c-1.0947-1.8752-1.2506-3.9088-1.4077-6.0971
	c-0.1558-2.4996-0.3118-5.0007-0.9375-7.5019c-0.3118-1.0934-0.6248-2.0311-1.0935-3.127l-1.2505-1.8752l-1.8753-1.7194
	l-2.1881-1.4051l-2.5011-0.783l-2.657-0.3104l-2.344,0.1545c-1.2505,0.4689-2.1894,0.7818-3.2828,1.4064l-1.7194,1.2519
	c-2.0323,1.5609-3.5945,3.4387-5.3139,5.4697c-1.4077,1.7193-2.9699,3.4388-5.1593,4.2204c-2.0311,0.4675-3.5945,0-5.3126-1.0934
	c-2.1882-1.8777-3.7516-4.3776-5.3152-6.7216c-1.0934-1.7193-2.1882-3.127-3.7503-4.5334c-0.7818-0.7805-1.5636-1.4064-2.657-1.8739
	l-2.0323-0.9389l-2.5011-0.3128l-2.5012,0.3128L250.0637,7.33l-2.1882,1.0946c-0.9376,0.7831-1.5636,1.5636-2.1882,2.5011
	l-1.0946,1.8753c-0.6248,1.8764-1.0935,3.5957-1.4065,5.471c-0.4688,2.657-0.7817,5.3138-2.1882,7.502
	c-1.4077,2.0323-3.2815,2.97-5.6268,2.97c-2.8128-0.3118-5.3139-1.7195-7.9708-2.97c-1.4064-0.7804-2.8128-1.4063-4.3762-2.0323
	c-1.252-0.4675-2.5013-0.9376-4.0648-1.0934h-2.1868l-2.5025,0.4675l-1.0934,0.47l-1.0946,0.6248l-2.0311,1.7191l-1.5634,1.8766
	l-0.6248,1.0934c-0.47,1.2519-0.6258,2.1882-0.9388,3.4387v2.031c0.313,2.0337,0.7817,3.753,1.4077,5.6283
	c0.6245,2.188,1.4064,4.2204,1.7193,6.5644c0,0.1511-0.0113,0.2778-0.0164,0.4165c-12.7234,2.0142-26.5163,3.1781-40.9338,3.1781
	c-29.6978,0-56.7373-4.8452-76.9007-12.0343c-6.5645-2.5011-13.9094-3.753-21.4127-3.753c-35.4806,0-64.551,28.9161-64.551,64.5525
	c0,35.6363,29.0704,64.7081,64.551,64.7081c7.5033,0,14.8482-1.4064,21.4127-3.7517c20.1634-7.189,47.2029-12.0341,76.9007-12.0341
	c7.2288,0,14.2982,0.2967,21.1598,0.8401c0.4084,0.2359,0.8345,0.4671,1.3464,0.7234l2.0323,0.6233
	c2.1882,0.4701,4.0633,0.4701,6.2527,0.4701c2.0421,0,4.0834-0.1301,6.0816-0.092c1.5277,0.2159,3.0373,0.4467,4.5355,0.6868
	c0.6562,0.2809,1.2123,0.643,1.8859,1.1246c0.4688,0.4688,0.7817,0.9376,1.2506,1.4063c1.4063,2.6584,0.9376,5.7827,0.4688,8.7527
	c-0.1558,1.5634-0.3131,2.9699-0.4688,4.5333c-0.1558,1.4065,0,2.657,0.1557,4.0647c0.1573,1.2492,0.4688,2.1869,0.9377,3.2803
	l1.2505,2.0322l1.8765,1.7195l2.1869,1.4063l2.3453,0.7817l2.344,0.3117l2.3451-0.1558c2.5011-0.6246,4.3765-1.5636,6.5646-2.8128
	c1.0933-0.6259,2.1881-1.2506,3.2829-1.8751c3.2815-2.0323,7.502-4.5335,11.0965-1.8752c1.7194,1.5621,2.657,3.5945,3.4387,5.7826
	c0.9375,2.344,1.7194,4.688,2.9699,7.0333c0.6247,0.9376,1.2493,1.718,1.8752,2.6569l1.8765,1.4065l2.1882,1.2518l2.4998,0.6246
	h2.6568l2.5011-0.4688l2.344-0.9388c0.939-0.6247,1.7194-1.2494,2.6571-2.1883l1.4076-1.5634
	c1.2506-2.0311,2.1869-3.9062,3.1257-6.0944c0.9377-2.0323,2.0325-4.3776,3.7517-5.9399c1.7194-1.2505,3.2816-1.4063,5.3139-0.9375
	c2.0324,0.7804,3.7517,2.0323,5.471,3.4386c1.8752,1.7194,3.7517,3.2816,5.9385,4.688c0.9377,0.4702,1.8752,0.939,2.8142,1.2506
	l2.3439,0.4688l2.344-0.1545l2.5011-0.6259l2.1882-1.0948l2.031-1.7194l0.783-0.9375c0.6247-0.939,1.0935-1.8753,1.5623-2.9699
	l0.3129-2.1869c0.3131-2.1895,0-4.2204-0.1558-6.5658c-0.3131-2.0309-0.6259-4.2204-0.3131-6.2514
	c0.4689-1.8765,1.4065-2.9699,3.1259-3.4387c1.8752-0.3129,3.4386,0.1558,5.158,0.7817c2.4999,0.7805,5.0022,1.8752,7.6579,2.344
	c1.0934,0.1559,2.0322,0.313,3.1257,0.1559l2.1895-0.313l2.1881-0.9363l1.0934-0.7831l1.8765-1.7194l1.4065-2.1867l0.9375-2.1882
	c0.313-1.2505,0.313-2.1882,0.313-3.44l-0.313-2.1868c-0.4689-1.8753-1.2505-3.5946-2.1894-5.471
	c-1.2492-2.4999-2.8128-5.001-3.2803-7.815c-0.1571-2.1883,0.3117-4.0634,2.0311-5.4711c1.7192-1.2493,3.7516-1.7194,5.7839-2.1868
	c2.4998-0.4688,4.9997-1.0948,7.5008-1.8766c0.9388-0.4688,1.8765-0.9362,2.814-1.5622l1.7194-1.5634l1.5622-2.0324l0.9389-2.344
	l0.4688-2.6569v-2.5012L359.9425,109.8625z M196.5671,132.3453c-0.5075-0.043-1.0125-0.0913-1.5215-0.1311
	c-2.54-0.2241-5.0707-0.4102-7.597-0.5651c-8.0451-0.4931-16.0427-0.6482-24.1317-0.5297
	c-10.3161,0.1571-20.631,0.9389-30.7912,2.1882c-15.9431,1.8751-31.7289,5.0022-46.7329,10.4719
	c-4.5336,1.5636-9.2215,2.3453-13.9107,2.5011c-2.0324,0-3.9075,0-5.9398-0.1558c-3.1245-0.4688-6.0957-1.0934-9.2213-1.8752
	c-2.1883-0.7818-4.2193-1.5635-6.4087-2.657c-3.4388-1.7193-6.4087-3.7516-9.5344-6.0956
	c-1.7194-1.5635-3.4387-3.1271-5.0009-4.6905c-2.5011-2.9687-4.6893-5.9385-6.5644-9.3772
	c-1.4065-2.8128-2.6571-5.4711-3.5946-8.441c-0.6259-2.344-1.2518-4.5322-1.5635-6.8762c-0.3116-2.3451-0.4701-4.6879-0.6246-7.1902
	c0.1545-2.4999,0.313-4.6894,0.6246-7.1905c0.3117-2.3439,0.9376-4.5321,1.5635-6.8775c0.7804-2.1868,1.5623-4.2191,2.4998-6.4071
	c1.8765-3.4375,3.7517-6.5645,6.2528-9.5344c1.4064-1.8752,2.9686-3.4388,4.6879-5.0022c2.97-2.657,5.9399-4.688,9.2227-6.5633
	l4.2205-2.0323c6.2515-2.4997,12.5029-3.9074,19.3804-3.7516c4.6892,0.1572,9.3771,0.9377,13.9107,2.5011
	c7.6578,2.8141,15.63,4.8464,23.6008,6.7216c10.3161,2.1868,20.6322,3.7503,31.26,4.6879
	c14.5684,1.2733,29.2321,1.639,43.8333,0.9319c2.7755-0.1345,5.5481-0.3118,8.3179-0.5259
	c14.8631-1.1487,29.6302-3.4475,44.13-7.1262c5.3139-1.4065,10.4705-2.9699,15.6286-4.6893
	c4.5334-1.5634,9.2227-2.3439,14.0678-2.5011c1.8752,0,3.9076,0.1572,5.7827,0.3129c3.2829,0.3131,6.0957,0.939,9.2214,1.8765
	c2.1882,0.6234,4.3762,1.5622,6.4099,2.4999c3.5933,1.7194,6.5632,3.7517,9.6889,6.097c1.7194,1.5609,3.2829,3.1243,4.8451,4.8437
	c2.6582,2.9699,4.6893,5.7839,6.7216,9.2227c1.4063,2.8128,2.5011,5.4697,3.5945,8.4382c0.6259,2.3454,1.0934,4.5336,1.5634,6.8775
	c0.3131,2.5011,0.4689,4.6906,0.4689,7.1905c0,2.5023-0.1558,4.8451-0.4689,7.1902c-0.47,2.344-0.9375,4.5322-1.5634,6.8762
	c-0.7817,2.1881-1.5622,4.2218-2.6569,6.4087c-1.7193,3.4386-3.7504,6.5656-6.0958,9.6901
	c-1.5634,1.7194-3.1256,3.2828-4.6891,4.8464c-2.9699,2.657-5.9385,4.688-9.3773,6.7203l-4.0647,1.8765
	c-6.2514,2.5011-12.1912,3.7503-18.9115,3.7503c-5.0009,0-9.8472-0.7818-14.5366-2.5011
	c-9.2214-3.1257-18.4428-5.6256-27.9758-7.502C215.2401,134.4976,206.0333,133.1472,196.5671,132.3453z M351.6573,117.3659
	c-1.7194,1.0934-3.9074,1.5636-5.7826,1.8751c-2.344,0.4688-4.5335,1.0935-6.7203,1.8752l-2.0323,0.7819
	c-1.0935,0.6245-1.8765,1.2505-2.8128,2.0309l-1.7194,2.0336l-1.2505,2.1882l-0.7818,2.4998l-0.3129,2.5011
	c0,1.2505,0.1558,2.3453,0.4688,3.4388c0.3129,1.8751,0.9389,3.4387,1.7192,5.0021c0.7806,1.8752,1.8766,3.7505,2.6571,5.6257
	c0.6259,1.2505,1.2505,2.5011,1.0948,4.0645c-0.3131,1.5636-1.5636,2.8128-3.1259,2.9686c-1.5648,0-3.1257-0.4687-4.6891-1.0933
	c-2.344-0.7819-4.5336-1.5636-7.0333-2.1882l-2.0323-0.1558c-1.2507,0-2.1882,0-3.4388,0.3129l-2.1881,0.7804l-2.1881,1.4064
	l-1.8753,1.7195l-1.4064,2.0322c-0.4701,1.0948-0.783,2.1882-1.0947,3.2829c-0.1571,1.4064-0.1571,2.6556-0.1571,4.0633
	c0.1571,2.344,0.4688,4.5322,0.6259,6.8775c0.1558,1.4077,0.3131,2.9686-0.4688,4.0632c-1.0946,1.2506-2.5011,1.718-4.0633,1.4065
	c-1.8766-0.6246-3.4387-2.0311-4.8464-3.2816c-2.031-1.7194-4.0633-3.4387-6.4073-4.8451l-2.0324-0.9375
	c-1.0933-0.3144-2.1881-0.626-3.4386-0.7819l-2.5011-0.1571l-2.6557,0.4702l-2.3453,1.0934l-2.0323,1.2505
	c-0.9377,0.7818-1.7194,1.5622-2.4997,2.5011c-1.0948,1.7194-2.0325,3.4387-2.97,5.3139c-1.0947,2.031-1.8765,4.2205-3.283,6.0957
	c-0.6245,0.7804-1.0946,1.2505-2.0322,1.5634c-1.5623,0.3117-3.1257,0.1559-4.3763-0.9375c-1.2492-1.5649-1.8751-3.5972-2.657-5.471
	c-0.7804-2.1882-1.5635-4.2205-2.6569-6.2529l-1.2505-1.8752c-0.7818-0.9375-1.4063-1.7193-2.344-2.5011l-2.1882-1.4063
	l-2.5011-0.939l-2.4998-0.4675c-1.2519,0-2.5024,0.156-3.7516,0.3131c-1.4065,0.3117-2.8142,0.7804-4.2218,1.4063
	c-2.6557,1.2494-4.9997,2.8128-7.6579,4.3764c-1.5623,0.7817-3.1257,1.7192-5.0009,1.8752c-1.7194-0.156-3.283-1.2506-3.7504-2.9699
	c-0.4701-1.8752,0-3.9076,0.1559-5.9386c0.3115-2.3453,0.6246-4.5335,0.6246-6.7215c0-1.2492-0.1572-2.1883-0.3131-3.283
	l-0.3137-1.1772c9.3591,1.9523,17.9784,4.3705,25.6353,7.117c6.4073,2.1883,13.4419,3.4388,20.631,3.4388
	c35.6362,0,64.7081-29.0718,64.7081-64.7081c0-35.6364-29.0719-64.5525-64.7081-64.5525c-7.1891,0-14.2237,1.0948-20.631,3.4401
	c-8.7223,3.1292-18.7011,5.8268-29.5924,7.8997c-0.0675-0.9659-0.2035-1.932-0.4183-2.8988
	c-0.6246-2.1881-1.4065-4.3763-2.0325-6.5631c-0.4674-1.4078-0.7803-2.8154-0.3115-4.2205
	c0.7817-1.4077,2.0309-2.1895,3.5945-2.0336c1.8752,0.3129,3.4386,1.0947,5.158,1.8778c2.3453,1.2492,4.6893,2.4984,7.1904,3.4374
	l2.1882,0.4688c1.2506,0.3115,2.344,0.3115,3.5945,0.3115l2.6569-0.3115l2.5011-0.9377l2.3453-1.4076l1.8752-1.7194
	c0.7805-0.9377,1.5636-1.7193,2.1882-2.8128c0.6246-1.2505,1.0948-2.4997,1.4063-3.9061c0.6246-2.3453,0.9377-4.6906,1.4065-6.8775
	c0.3129-1.2519,0.626-2.6569,1.5635-3.5958c1.0934-0.9389,2.9699-1.0947,4.3762-0.313c1.4065,0.9377,2.344,2.3454,3.283,3.7517
	c1.4063,2.1882,2.8128,4.3763,4.532,6.2516c0.7805,0.783,1.5623,1.5634,2.4999,2.3439l1.8765,1.2518
	c1.2492,0.4688,2.344,0.9377,3.5945,1.2493l2.6569,0.3129l2.6583-0.3129l2.1868-0.7805c1.0948-0.4688,2.0324-0.9389,2.9699-1.7206
	c1.7194-1.2493,3.1257-2.657,4.5336-4.2192c1.4063-1.7181,2.9698-3.5958,4.845-5.0009c0.7804-0.4702,1.2506-0.7817,2.1881-0.7817
	c1.7194,0.1557,3.127,0.7817,3.9076,2.1868c0.7803,1.8777,0.9375,3.9088,1.0934,5.9411c0.1571,2.3439,0.3129,4.6879,0.7817,6.8761
	l0.626,2.1895c0.6246,1.0933,1.0934,2.031,1.718,2.9685l1.7194,1.8751l2.0323,1.7195l2.3439,1.0961l2.5011,0.6232
	c1.0935,0.1571,2.1896,0.1571,3.4388,0.1571c1.7194-0.3128,3.4386-0.6245,5.158-1.0946c2.0324-0.6247,3.9075-1.4051,5.9398-2.031
	c1.2492-0.313,2.6571-0.7818,4.062-0.4703c1.5649,0.4703,2.6582,1.8766,2.6582,3.4388c-0.1557,1.7194-0.9388,3.1271-1.7192,4.5335
	c-1.0948,2.3439-2.3439,4.3763-3.1258,6.7202l-0.4689,2.1895c-0.1571,1.0934-0.3128,2.1868-0.1571,3.4387l0.4702,2.3427
	l1.0934,2.5011l1.8752,2.0323l1.8765,1.5622c0.9363,0.6259,1.8751,0.939,2.9686,1.4077c1.7207,0.4701,3.2828,0.7818,5.0021,0.9376
	c1.8766,0.1558,3.7517,0.1558,5.627,0.3129c1.2506,0.1559,2.5011,0.3131,3.5945,0.9377c1.2519,1.2505,1.7194,2.9699,1.0935,4.5334
	c-0.9377,1.718-2.6571,2.9687-4.0634,4.3763c-2.031,1.7194-3.9062,3.4387-5.6256,5.6255l-1.2519,1.7194
	c-0.4674,1.2505-0.9361,2.1882-1.2492,3.4388l-0.4688,2.5011l0.1559,2.6568l0.626,2.5011l0.9361,2.1882
	c0.6259,0.9389,1.4065,1.8752,2.1895,2.6569c1.4064,1.5623,2.97,2.6571,4.688,3.9076c2.0323,1.2506,4.0634,2.3439,5.6281,4.0647
	c0.6233,0.6246,0.9364,1.2491,1.0935,2.1867C353.3767,114.8648,352.9078,116.4282,351.6573,117.3659z M153.4695,98.1414h-18.2856
	v-13.599h24.2254V72.351h-41.2631v52.3611h17.0377v-16.256h18.2856V98.1414z M80.6347,72.351l-17.8169,52.3611h14.3783
	l3.127-12.5043h15.6287l3.4386,12.5043h18.2884L99.5476,72.351H80.6347z M83.6032,100.9542l4.6907-13.2861l4.6893,13.2861H83.6032z
	 M193.1785,82.305l-2.3994-6.9291l-1.0474-3.0249H170.976l-14.6924,43.2955l-3.1257,9.0656h14.3795l3.2828-12.5043h15.3157
	l0.5382,1.9571l2.9005,10.5472h18.2882L196.202,91.0367L193.1785,82.305z M173.9459,100.9542l4.6893-13.2861l1.3081,3.8347
	l2.582,7.5696l0.6419,1.8818H173.9459z M236.3088,124.7121h12.503l12.1926-37.1998l-0.313,37.1998h18.5999V72.351h-26.4149
	l-8.5968,28.6032l-9.5344-28.6032h-25.3201v52.3611h15.004l-0.6246-37.1998L236.3088,124.7121z"/>
<path class="st1" d="M267.5689,34.3694c35.6362,0,64.7081,28.9161,64.7081,64.5525c0,35.6363-29.0719,64.7081-64.7081,64.7081
	c-7.1891,0-14.2237-1.2505-20.631-3.4388c-7.6569-2.7465-16.2762-5.1647-25.6353-7.117l0.3137,1.1772
	c0.1559,1.0947,0.3131,2.0338,0.3131,3.283c0,2.188-0.3131,4.3762-0.6246,6.7215c-0.1559,2.031-0.626,4.0634-0.1559,5.9386
	c0.4674,1.7193,2.031,2.8139,3.7504,2.9699c1.8752-0.156,3.4386-1.0935,5.0009-1.8752c2.6582-1.5636,5.0022-3.127,7.6579-4.3764
	c1.4076-0.6259,2.8153-1.0946,4.2218-1.4063c1.2492-0.1571,2.4997-0.3131,3.7516-0.3131l2.4998,0.4675l2.5011,0.939l2.1882,1.4063
	c0.9377,0.7818,1.5622,1.5636,2.344,2.5011l1.2505,1.8752c1.0934,2.0324,1.8765,4.0647,2.6569,6.2529
	c0.7819,1.8738,1.4078,3.9061,2.657,5.471c1.2506,1.0934,2.814,1.2492,4.3763,0.9375c0.9376-0.3129,1.4077-0.783,2.0322-1.5634
	c1.4065-1.8752,2.1883-4.0647,3.283-6.0957c0.9375-1.8752,1.8752-3.5945,2.97-5.3139c0.7803-0.9389,1.562-1.7193,2.4997-2.5011
	l2.0323-1.2505l2.3453-1.0934l2.6557-0.4702l2.5011,0.1571c1.2505,0.1559,2.3453,0.4675,3.4386,0.7819l2.0324,0.9375
	c2.344,1.4064,4.3763,3.1257,6.4073,4.8451c1.4077,1.2505,2.9698,2.657,4.8464,3.2816c1.5622,0.3115,2.9687-0.1559,4.0633-1.4065
	c0.7819-1.0946,0.6246-2.6555,0.4688-4.0632c-0.1571-2.3453-0.4688-4.5335-0.6259-6.8775c0-1.4077,0-2.6569,0.1571-4.0633
	c0.3117-1.0947,0.6246-2.1881,1.0947-3.2829l1.4064-2.0322l1.8753-1.7195l2.1881-1.4064l2.1881-0.7804
	c1.2506-0.3129,2.1881-0.3129,3.4388-0.3129l2.0323,0.1558c2.4997,0.6246,4.6893,1.4063,7.0333,2.1882
	c1.5634,0.6246,3.1243,1.0933,4.6891,1.0933c1.5623-0.1558,2.8128-1.405,3.1259-2.9686c0.1557-1.5634-0.4689-2.814-1.0948-4.0645
	c-0.7805-1.8752-1.8765-3.7505-2.6571-5.6257c-0.7803-1.5634-1.4063-3.127-1.7192-5.0021c-0.313-1.0935-0.4688-2.1883-0.4688-3.4388
	l0.3129-2.5011l0.7818-2.4998l1.2505-2.1882l1.7194-2.0336c0.9363-0.7804,1.7193-1.4064,2.8128-2.0309l2.0323-0.7819
	c2.1868-0.7817,4.3763-1.4064,6.7203-1.8752c1.8752-0.3115,4.0632-0.7817,5.7826-1.8751c1.2505-0.9377,1.7194-2.5011,1.5636-4.0647
	c-0.1571-0.9376-0.4702-1.5621-1.0935-2.1867c-1.5647-1.7208-3.5958-2.8141-5.6281-4.0647c-1.718-1.2505-3.2816-2.3453-4.688-3.9076
	c-0.783-0.7817-1.5636-1.718-2.1895-2.6569l-0.9361-2.1882l-0.626-2.5011l-0.1559-2.6568l0.4688-2.5011
	c0.3131-1.2506,0.7818-2.1883,1.2492-3.4388l1.2519-1.7194c1.7194-2.1868,3.5946-3.9061,5.6256-5.6255
	c1.4063-1.4076,3.1257-2.6583,4.0634-4.3763c0.6259-1.5635,0.1584-3.2829-1.0935-4.5334c-1.0934-0.6246-2.3439-0.7818-3.5945-0.9377
	c-1.8753-0.1571-3.7504-0.1571-5.627-0.3129c-1.7193-0.1558-3.2814-0.4675-5.0021-0.9376
	c-1.0935-0.4687-2.0323-0.7818-2.9686-1.4077l-1.8765-1.5622l-1.8752-2.0323l-1.0934-2.5011l-0.4702-2.3427
	c-0.1557-1.2519,0-2.3453,0.1571-3.4387l0.4689-2.1895c0.7819-2.3439,2.031-4.3763,3.1258-6.7202
	c0.7804-1.4064,1.5635-2.8141,1.7192-4.5335c0-1.5622-1.0933-2.9685-2.6582-3.4388c-1.4049-0.3115-2.8128,0.1573-4.062,0.4703
	c-2.0323,0.6259-3.9074,1.4063-5.9398,2.031c-1.7194,0.4701-3.4386,0.7818-5.158,1.0946c-1.2492,0-2.3453,0-3.4388-0.1571
	l-2.5011-0.6232l-2.3439-1.0961l-2.0323-1.7195l-1.7194-1.8751c-0.6246-0.9375-1.0934-1.8752-1.718-2.9685l-0.626-2.1895
	c-0.4688-2.1882-0.6246-4.5322-0.7817-6.8761c-0.1559-2.0323-0.3131-4.0634-1.0934-5.9411
	c-0.7806-1.4051-2.1882-2.0311-3.9076-2.1868c-0.9375,0-1.4077,0.3115-2.1881,0.7817c-1.8752,1.4051-3.4387,3.2828-4.845,5.0009
	c-1.4079,1.5622-2.8142,2.9699-4.5336,4.2192c-0.9375,0.7817-1.8751,1.2518-2.9699,1.7206l-2.1868,0.7805l-2.6583,0.3129
	l-2.6569-0.3129c-1.2505-0.3116-2.3453-0.7805-3.5945-1.2493l-1.8765-1.2518c-0.9376-0.7805-1.7194-1.5609-2.4999-2.3439
	c-1.7192-1.8753-3.1257-4.0634-4.532-6.2516c-0.939-1.4063-1.8765-2.814-3.283-3.7517c-1.4063-0.7817-3.2828-0.6259-4.3762,0.313
	c-0.9375,0.9389-1.2506,2.3439-1.5635,3.5958c-0.4688,2.1869-0.7819,4.5322-1.4065,6.8775
	c-0.3115,1.4064-0.7817,2.6556-1.4063,3.9061c-0.6246,1.0935-1.4077,1.8751-2.1882,2.8128l-1.8752,1.7194l-2.3453,1.4076
	l-2.5011,0.9377l-2.6569,0.3115c-1.2505,0-2.3439,0-3.5945-0.3115l-2.1882-0.4688c-2.5011-0.939-4.8451-2.1882-7.1904-3.4374
	c-1.7194-0.7831-3.2828-1.5649-5.158-1.8778c-1.5636-0.1559-2.8128,0.6259-3.5945,2.0336
	c-0.4688,1.4051-0.1559,2.8127,0.3115,4.2205c0.626,2.1868,1.4079,4.375,2.0325,6.5631c0.2148,0.9668,0.3508,1.9329,0.4183,2.8988
	c10.8913-2.0729,20.8701-4.7705,29.5924-7.8997C253.3452,35.4642,260.3798,34.3694,267.5689,34.3694z"/>
<path class="st2" d="M83.6032,100.9542h9.38l-4.6893-13.2861L83.6032,100.9542z M179.9433,91.5028l-1.3081-3.8347l-4.6893,13.2861
	h9.2213l-0.6419-1.8818L179.9433,91.5028z M314.4587,91.7314c-0.47-2.3439-0.9375-4.5321-1.5634-6.8775
	c-1.0934-2.9685-2.1882-5.6254-3.5945-8.4382c-2.0323-3.4388-4.0634-6.2528-6.7216-9.2227
	c-1.5622-1.7194-3.1257-3.2828-4.8451-4.8437c-3.1257-2.3453-6.0956-4.3776-9.6889-6.097
	c-2.0337-0.9377-4.2217-1.8765-6.4099-2.4999c-3.1257-0.9375-5.9385-1.5634-9.2214-1.8765
	c-1.8751-0.1557-3.9075-0.3129-5.7827-0.3129c-4.8451,0.1572-9.5344,0.9377-14.0678,2.5011
	c-5.1581,1.7194-10.3147,3.2828-15.6286,4.6893c-14.4998,3.6787-29.2669,5.9775-44.13,7.1262
	c-2.7698,0.2141-5.5424,0.3914-8.3179,0.5259c-14.6012,0.7071-29.2649,0.3414-43.8333-0.9319
	c-10.6278-0.9376-20.9439-2.5011-31.26-4.6879c-7.9708-1.8752-15.943-3.9075-23.6008-6.7216
	c-4.5336-1.5634-9.2215-2.3439-13.9107-2.5011c-6.8775-0.1558-13.1289,1.2519-19.3804,3.7516l-4.2205,2.0323
	c-3.2828,1.8753-6.2527,3.9063-9.2227,6.5633c-1.7193,1.5634-3.2815,3.127-4.6879,5.0022
	c-2.5011,2.9699-4.3763,6.0969-6.2528,9.5344c-0.9375,2.188-1.7194,4.2203-2.4998,6.4071
	c-0.6259,2.3454-1.2518,4.5336-1.5635,6.8775c-0.3116,2.5011-0.4701,4.6906-0.6246,7.1905c0.1545,2.5023,0.313,4.8451,0.6246,7.1902
	c0.3117,2.344,0.9376,4.5322,1.5635,6.8762c0.9375,2.9699,2.1881,5.6282,3.5946,8.441c1.8751,3.4387,4.0633,6.4085,6.5644,9.3772
	c1.5622,1.5634,3.2815,3.127,5.0009,4.6905c3.1257,2.344,6.0956,4.3763,9.5344,6.0956c2.1894,1.0935,4.2204,1.8752,6.4087,2.657
	c3.1256,0.7818,6.0968,1.4064,9.2213,1.8752c2.0323,0.1558,3.9074,0.1558,5.9398,0.1558c4.6892-0.1558,9.3771-0.9375,13.9107-2.5011
	c15.004-5.4697,30.7898-8.5968,46.7329-10.4719c10.1602-1.2493,20.4751-2.0311,30.7912-2.1882
	c8.089-0.1185,16.0866,0.0366,24.1317,0.5297c2.5263,0.1549,5.057,0.341,7.597,0.5651c0.509,0.0398,1.014,0.0881,1.5215,0.1311
	c9.4662,0.8019,18.673,2.1523,28.0205,3.9322c9.533,1.8764,18.7544,4.3763,27.9758,7.502
	c4.6894,1.7193,9.5357,2.5011,14.5366,2.5011c6.7203,0,12.6601-1.2492,18.9115-3.7503l4.0647-1.8765
	c3.4388-2.0323,6.4074-4.0633,9.3773-6.7203c1.5635-1.5636,3.1257-3.127,4.6891-4.8464c2.3454-3.1245,4.3765-6.2515,6.0958-9.6901
	c1.0947-2.1869,1.8752-4.2206,2.6569-6.4087c0.6259-2.344,1.0934-4.5322,1.5634-6.8762c0.3131-2.3451,0.4689-4.6879,0.4689-7.1902
	C314.9276,96.422,314.7718,94.2325,314.4587,91.7314z M99.3904,124.7121l-3.4386-12.5043H80.3231l-3.127,12.5043H62.8178
	L80.6347,72.351h18.9129l18.1312,52.3611H99.3904z M135.1839,124.7121h-17.0377V72.351h41.2631v12.1914h-24.2254v13.599h18.2856
	v10.3147h-18.2856V124.7121z M189.5746,124.7121l-2.9005-10.5472l-0.5382-1.9571h-15.3157l-3.2828,12.5043h-14.3795l3.1257-9.0656
	L170.976,72.351h18.7557l1.0474,3.0249l2.3994,6.9291l3.0235,8.7317l11.6608,33.6754H189.5746z M279.2913,124.7121h-18.5999
	l0.313-37.1998l-12.1926,37.1998h-12.503l-12.5043-37.1998l0.6246,37.1998h-15.004V72.351h25.3201l9.5344,28.6032l8.5968-28.6032
	h26.4149V124.7121z"/>
</svg>
