<?xml version="1.0" encoding="UTF-8"?>
<svg id="Calque_1" data-name="Calque 1" xmlns="http://www.w3.org/2000/svg" viewBox="0 0 390.14 56.89">
  <defs>
    <style>
      .cls-1 {
        fill: #fff;
      }

      .cls-2 {
        fill: #de0914;
      }
    </style>
  </defs>
  <g id="_3Rv5lW" data-name="3Rv5lW">
    <g>
      <path class="cls-2" d="M0,.06c1.62,0,2.9,0,4.19,0,126.98,0,253.96,0,380.93.03,5.4,0,4.93-1.21,4.97,5.05.09,16.06.04,32.13.04,48.19,0,3.53,0,3.54-3.52,3.54-80.16,0-160.33,0-240.49,0-47.65,0-95.31,0-142.96,0-3.13,0-3.13-.02-3.13-3.15C0,36.91,0,20.08,0,3.25,0,2.28,0,1.31,0,.06ZM201.89,23.84c.32.66.55,1.12.77,1.58,3.66,7.39,7.35,14.76,10.94,22.19.66,1.37,1.43,1.93,2.96,1.88,3.13-.11,6.28-.18,9.4.02,2.12.13,2.72-.75,3.04-2.65,1.57-9.17,3.27-18.33,4.9-27.49.66-3.72,1.25-7.45,1.92-11.43-4.09,0-7.82-.05-11.55.06-.5.02-1.27.81-1.39,1.36-.56,2.45-.95,4.94-1.38,7.42-.91,5.18-1.81,10.35-2.78,15.86-.38-.66-.62-1.02-.81-1.41-3.36-7.02-6.76-14.04-10.06-21.09-.77-1.65-1.69-2.43-3.65-2.3-3.05.2-6.12.19-9.17,0-2.17-.13-3.05.54-3.41,2.76-1.37,8.36-2.96,16.68-4.45,25.01-.8,4.49-1.56,8.98-2.39,13.82,4.11,0,7.91.06,11.71-.08.46-.02,1.17-1.04,1.28-1.68,1.39-7.81,2.7-15.63,4.09-23.84ZM312.5,49.32c2.59-14.54,5.16-28.99,7.82-43.92-2.69,0-5.03,0-7.36,0q-4.06,0-4.81,3.93c-.29,1.5-.56,3-.83,4.5-.59,3.34-1.18,6.67-1.77,10.03-.35-.1-.54-.1-.63-.19-5.5-5.69-17.3-4.95-23.08,2.33-3.87,4.88-4.9,12.62-2.04,18.13,3.47,6.69,12.58,8.48,19.78,3.89.66-.42,1.29-.87,2.14-1.45v2.75h10.78ZM148.98,23.71c-2.23-1.15-4.13-2.56-6.26-3.17-11.14-3.17-21.99,5.78-21.22,17.35.56,8.32,6.33,13.48,14.54,12.43,3.18-.41,6.2-2.04,9.17-3.07-.02.32-.07,1.12-.12,2.08h10.84c2.59-14.57,5.17-29.03,7.82-43.92-3.24,0-6.12.12-8.98-.04-2.06-.12-2.75.65-3.05,2.64-.78,5.27-1.81,10.51-2.73,15.7ZM7.73,35.4c-1.52,1.91-3.15,4.11-4.95,6.18-1.17,1.34-1.02,2.2.31,3.36,7.15,6.26,19.55,7.42,27.71,2.49,4.94-2.99,7.31-8.24,6.37-13.87-.67-3.99-3.43-6.17-6.64-7.96-2.4-1.34-4.98-2.37-7.31-3.81-.88-.54-1.99-2.15-1.74-2.74.46-1.07,1.79-2.33,2.87-2.44,1.73-.17,3.62.32,5.29.93,1.53.55,2.88,1.63,4.46,2.56,1.8-2.78,3.54-5.45,5.42-8.35-1.25-.8-2.27-1.6-3.41-2.15-7.48-3.63-15.04-4.33-22.24.44-8.16,5.41-7.58,15.47.96,20.11,1.34.73,2.76,1.31,4.1,2.04,1.33.73,2.73,1.43,3.88,2.39,2.16,1.79,1.82,4.22-.85,5.05-1.66.51-3.75.71-5.33.15-2.96-1.05-5.69-2.76-8.89-4.38ZM95.32,20.54c-3.04,0-6,.04-8.95-.02-1.38-.02-2.01.44-2.25,1.9-.95,5.8-2.04,11.57-3.07,17.35-.56,3.12-1.09,6.25-1.69,9.67,3.69,0,7.04.07,10.38-.08.51-.02,1.25-1.01,1.41-1.66.49-2.07.67-4.22,1.12-6.31.69-3.27,1.24-6.61,2.34-9.74,1.03-2.93,4.29-4.14,7.24-3.24,2.02.61,2.64,2.3,2.12,5.81-.04.3-.14.6-.19.9-.82,4.64-1.63,9.28-2.51,14.3,3.75,0,7.23.07,10.71-.08.47-.02,1.15-1.1,1.28-1.77.96-4.94,1.95-9.88,2.62-14.87.32-2.37.41-4.96-.22-7.22-1.32-4.72-6.55-6.52-11.47-5.63-3.13.57-6.05,2.32-8.86,3.46v-2.77ZM76.11,37.56c1.06-4.67.24-8.73-2.68-12.21-7.45-8.88-24.75-7.25-30.34,2.9-4.18,7.58-2.83,20.02,10.48,22,4.66.69,9.33.37,13.75-1.39,1.71-.68,3.25-1.81,5.17-2.91-1.92-1.8-3.47-3.24-4.99-4.71-.95-.92-1.77-1.11-2.94-.17-2.22,1.79-4.82,2.59-7.7,2.29-3.22-.33-4.91-2.48-4.35-5.82h23.6ZM332.56,37.56c1.17,0,2.38,0,3.59,0,6.04,0,12.07,0,18.11,0,1.05,0,2.2.18,2.32-1.45.3-4.2-.49-8.03-3.44-11.26-3.02-3.3-6.87-4.82-11.18-5.08-7.68-.46-14.45,1.4-18.73,8.47-4.79,7.9-1.68,18.14,6.66,21.01,6.9,2.37,13.84,1.88,20.34-1.78.74-.42,1.35-1.07,2.19-1.76-2.22-2-4.19-3.76-6.18-5.55-2.88,1.9-5.59,3.59-9.05,3.24-3.35-.33-5.1-2.37-4.63-5.84ZM253.3,20.58c-3.71,0-7.13-.07-10.54.08-.5.02-1.27,1.03-1.39,1.69-.97,5.1-1.9,10.21-2.69,15.34-.83,5.47,1.69,9.57,6.89,11.52,4.35,1.62,8.85,1.61,13.34.96,6.48-.94,10.73-4.58,12.26-11.03.91-3.86,1.6-7.77,2.34-11.67.41-2.15.73-4.31,1.15-6.86-3.79,0-7.2-.06-10.61.07-.43.02-1.06.98-1.19,1.59-.69,3.36-1.21,6.76-1.88,10.13-.64,3.21-1.1,6.53-3.68,8.94-1.44,1.35-3.13,1.53-4.89.77-1.67-.71-2.01-2.18-1.92-3.8.06-1.07.15-2.14.32-3.19.79-4.72,1.61-9.44,2.48-14.52ZM386.83,22.74c-6.69-3.42-13.21-4.33-19.89-1.32-4.35,1.96-6.36,5.83-5.42,9.77.78,3.24,3.47,4.48,6.13,5.69,1.94.89,3.98,1.57,5.87,2.54.6.31,1.28,1.33,1.19,1.9-.1.61-1.08,1.53-1.67,1.53-2.09,0-4.23-.14-6.25-.62-1.72-.41-3.31-1.38-5.09-2.16-1.33,2.37-2.55,4.55-3.93,7,7.35,3.66,14.74,4.89,22.39,1.82,3.54-1.42,5.77-4.09,5.88-8.25.1-4.19-2.55-6.15-5.8-7.66-2.21-1.03-4.53-1.83-6.74-2.85-.53-.24-1.24-1.1-1.13-1.47.18-.61.86-1.22,1.49-1.49.66-.29,1.54-.38,2.25-.21,2.42.58,4.8,1.3,7.52,2.06.93-1.81,1.99-3.88,3.21-6.27Z"/>
      <path class="cls-1" d="M201.89,23.84c-1.39,8.21-2.7,16.03-4.09,23.84-.11.64-.82,1.66-1.28,1.68-3.8.14-7.6.08-11.71.08.84-4.84,1.59-9.33,2.39-13.82,1.49-8.34,3.08-16.66,4.45-25.01.36-2.21,1.24-2.89,3.41-2.76,3.05.19,6.13.2,9.17,0,1.95-.13,2.88.65,3.65,2.3,3.3,7.06,6.69,14.07,10.06,21.09.19.39.43.75.81,1.41.96-5.51,1.87-10.68,2.78-15.86.44-2.48.82-4.97,1.38-7.42.13-.55.9-1.35,1.39-1.36,3.73-.12,7.46-.06,11.55-.06-.67,3.99-1.26,7.72-1.92,11.43-1.63,9.16-3.34,18.31-4.9,27.49-.32,1.9-.92,2.79-3.04,2.65-3.12-.2-6.27-.13-9.4-.02-1.53.05-2.3-.51-2.96-1.88-3.59-7.43-7.28-14.8-10.94-22.19-.23-.46-.45-.92-.77-1.58Z"/>
      <path class="cls-1" d="M312.5,49.32h-10.78v-2.75c-.85.58-1.48,1.03-2.14,1.45-7.2,4.59-16.31,2.8-19.78-3.89-2.86-5.52-1.83-13.25,2.04-18.13,5.77-7.28,17.58-8.02,23.08-2.33.09.09.28.09.63.19.59-3.36,1.18-6.7,1.77-10.03.27-1.5.55-3,.83-4.5q.75-3.93,4.81-3.93c2.33,0,4.67,0,7.36,0-2.66,14.92-5.23,29.38-7.82,43.92ZM296.78,41.65c4.46-.01,7.89-3.43,7.83-7.8-.04-3.31-2.91-5.81-6.64-5.8-4.41.01-7.84,3.48-7.78,7.86.05,3.44,2.7,5.75,6.59,5.74Z"/>
      <path class="cls-1" d="M148.98,23.71c.92-5.19,1.95-10.43,2.73-15.7.29-1.99.99-2.76,3.05-2.64,2.87.16,5.75.04,8.98.04-2.65,14.89-5.23,29.35-7.82,43.92h-10.84c.06-.96.11-1.76.12-2.08-2.97,1.03-5.99,2.66-9.17,3.07-8.21,1.06-13.98-4.1-14.54-12.43-.77-11.57,10.08-20.52,21.22-17.35,2.13.61,4.03,2.02,6.26,3.17ZM140.11,41.65c4.53.01,7.84-3.28,7.83-7.77,0-3.38-2.82-5.85-6.61-5.82-4.34.04-7.76,3.44-7.76,7.72,0,3.45,2.68,5.86,6.54,5.87Z"/>
      <path class="cls-1" d="M7.73,35.4c3.2,1.63,5.93,3.33,8.89,4.38,1.58.56,3.68.37,5.33-.15,2.67-.83,3.01-3.26.85-5.05-1.16-.96-2.55-1.66-3.88-2.39-1.34-.73-2.76-1.31-4.1-2.04-8.54-4.64-9.12-14.7-.96-20.11,7.2-4.77,14.76-4.07,22.24-.44,1.14.55,2.16,1.35,3.41,2.15-1.89,2.9-3.62,5.57-5.42,8.35-1.58-.93-2.92-2.01-4.46-2.56-1.68-.61-3.57-1.1-5.29-.93-1.08.11-2.41,1.37-2.87,2.44-.25.59.87,2.2,1.74,2.74,2.33,1.44,4.91,2.47,7.31,3.81,3.21,1.79,5.98,3.97,6.64,7.96.94,5.63-1.43,10.88-6.37,13.87-8.16,4.94-20.56,3.78-27.71-2.49-1.33-1.16-1.48-2.02-.31-3.36,1.8-2.07,3.43-4.27,4.95-6.18Z"/>
      <path class="cls-1" d="M95.32,20.54v2.77c2.82-1.14,5.73-2.89,8.86-3.46,4.92-.89,10.15.91,11.47,5.63.63,2.26.54,4.86.22,7.22-.66,4.98-1.66,9.93-2.62,14.87-.13.67-.82,1.75-1.28,1.77-3.48.15-6.97.08-10.71.08.88-5.01,1.69-9.66,2.51-14.3.05-.3.14-.59.19-.9.52-3.51-.1-5.19-2.12-5.81-2.95-.9-6.21.31-7.24,3.24-1.11,3.13-1.65,6.47-2.34,9.74-.44,2.09-.63,4.23-1.12,6.31-.15.65-.9,1.64-1.41,1.66-3.34.15-6.69.08-10.38.08.6-3.43,1.14-6.55,1.69-9.67,1.03-5.78,2.12-11.56,3.07-17.35.24-1.45.88-1.92,2.25-1.9,2.96.05,5.91.02,8.95.02Z"/>
      <path class="cls-1" d="M76.11,37.56h-23.6c-.55,3.34,1.14,5.49,4.35,5.82,2.88.29,5.48-.5,7.7-2.29,1.16-.94,1.98-.75,2.94.17,1.52,1.47,3.07,2.91,4.99,4.71-1.93,1.1-3.46,2.23-5.17,2.91-4.43,1.76-9.09,2.08-13.75,1.39-13.31-1.98-14.65-14.42-10.48-22,5.59-10.16,22.89-11.78,30.34-2.9,2.92,3.48,3.74,7.54,2.68,12.21ZM65.33,31.35c-.63-3.18-2.33-4.49-5.63-4.44-3.31.04-5.64,1.73-6.14,4.44h11.77Z"/>
      <path class="cls-1" d="M332.56,37.56c-.47,3.47,1.28,5.5,4.63,5.84,3.46.35,6.17-1.35,9.05-3.24,1.99,1.78,3.95,3.55,6.18,5.55-.84.68-1.45,1.34-2.19,1.76-6.5,3.67-13.44,4.15-20.34,1.78-8.34-2.86-11.45-13.11-6.66-21.01,4.28-7.07,11.05-8.93,18.73-8.47,4.31.26,8.16,1.77,11.18,5.08,2.95,3.22,3.74,7.05,3.44,11.26-.12,1.63-1.27,1.45-2.32,1.45-6.04.01-12.07,0-18.11,0-1.21,0-2.42,0-3.59,0ZM345.29,31.41c-.09-2.56-1.73-4.22-4.3-4.47-3.88-.37-6.72,1.32-7.37,4.47h11.66Z"/>
      <path class="cls-1" d="M253.3,20.58c-.87,5.08-1.69,9.8-2.48,14.52-.18,1.05-.27,2.12-.32,3.19-.09,1.62.26,3.09,1.92,3.8,1.77.76,3.45.58,4.89-.77,2.58-2.41,3.04-5.73,3.68-8.94.67-3.37,1.18-6.77,1.88-10.13.13-.61.76-1.57,1.19-1.59,3.4-.13,6.82-.07,10.61-.07-.42,2.55-.74,4.72-1.15,6.86-.74,3.9-1.43,7.81-2.34,11.67-1.53,6.45-5.77,10.09-12.26,11.03-4.49.65-8.99.66-13.34-.96-5.21-1.94-7.73-6.05-6.89-11.52.78-5.13,1.71-10.24,2.69-15.34.12-.65.89-1.66,1.39-1.69,3.41-.15,6.83-.08,10.54-.08Z"/>
      <path class="cls-1" d="M386.83,22.74c-1.22,2.38-2.28,4.45-3.21,6.27-2.72-.76-5.1-1.49-7.52-2.06-.7-.17-1.59-.08-2.25.21-.62.27-1.31.89-1.49,1.49-.11.36.61,1.22,1.13,1.47,2.21,1.03,4.53,1.83,6.74,2.85,3.26,1.51,5.91,3.47,5.8,7.66-.1,4.16-2.34,6.83-5.88,8.25-7.65,3.08-15.04,1.85-22.39-1.82,1.37-2.45,2.6-4.63,3.93-7,1.77.78,3.37,1.75,5.09,2.16,2.02.49,4.16.62,6.25.62.59,0,1.57-.92,1.67-1.53.09-.57-.59-1.59-1.19-1.9-1.89-.97-3.93-1.65-5.87-2.54-2.66-1.22-5.35-2.45-6.13-5.69-.94-3.94,1.07-7.81,5.42-9.77,6.68-3.01,13.21-2.1,19.89,1.32Z"/>
      <path class="cls-2" d="M296.78,41.65c-3.89,0-6.55-2.3-6.59-5.74-.06-4.38,3.38-7.84,7.78-7.86,3.73-.01,6.6,2.5,6.64,5.8.06,4.37-3.38,7.79-7.83,7.8Z"/>
      <path class="cls-2" d="M140.11,41.65c-3.86-.01-6.54-2.42-6.54-5.87,0-4.28,3.42-7.68,7.76-7.72,3.8-.03,6.6,2.44,6.61,5.82.01,4.49-3.31,7.79-7.83,7.77Z"/>
      <path class="cls-2" d="M65.33,31.35h-11.77c.49-2.72,2.83-4.4,6.14-4.44,3.31-.04,5,1.26,5.63,4.44Z"/>
      <path class="cls-2" d="M345.29,31.41h-11.66c.65-3.15,3.48-4.84,7.37-4.47,2.57.25,4.21,1.91,4.3,4.47Z"/>
    </g>
  </g>
</svg>