<?xml version="1.0" encoding="UTF-8"?>
<svg id="Calque_1" data-name="Calque 1" xmlns="http://www.w3.org/2000/svg" viewBox="0 0 751.82 270.27">
  <defs>
    <style>
      .cls-1 {
        fill: #10186d;
      }

      .cls-2 {
        fill: #098fe6;
      }

      .cls-3 {
        fill: #f74d09;
      }
    </style>
  </defs>
  <g id="WrqTp4">
    <g>
      <path class="cls-2" d="M95.88,39.08c21.95-.42,41.64,4.25,59.69,15.14,2.4,1.45,3.81,1.5,5.76-1.02,18.16-23.45,42.72-34.42,71.82-36.66,17.38-1.34,34.31-.07,50.61,6.58,5.89,2.4,11.39,5.48,16.29,9.47,2.88,2.34,4.58,2.24,7.36-.43,15.98-15.34,35.25-23.53,57.3-24.94,14.2-.91,28.36-.17,42.16,3.56,4.42,1.2,5.42-.52,5.84-4.3.77-7.03.86-6.87,7.75-6.16,26.03,2.71,51.91,7.03,77.92,9.16,18.33,1.5,35.04,7.78,52.53,11.65,10.95,2.43,22.11,3.26,33.15,4.99,1.2.19,2.79.39,3.13-1.29.72-3.6,3.15-2.74,5.41-2.2,45.03,10.73,89.78,22.4,133.31,38.36,7.68,2.82,15.49,5.28,23.25,7.9,2.3.78,2.92,1.53,2.56,4.63-2.29,19.49-11.14,36.95-16.49,55.48-3.57,12.37-8.2,24.43-12.3,36.65-1.06,3.16-2.4,5.98-4.95,8.38-5.64,5.3-6.95,12.86-9.5,19.73-2.99,8.05-5.65,16.22-8.54,24.32-4.94,13.86-9.91,27.7-14.95,41.53-2.9,7.97-7.78,9.86-15.91,7.1-20.82-7.07-41.42-14.82-62.79-20.14-3.14-.78-6.15-.77-9.16.79-3.95,2.04-8.12,2.2-12.4.89-12.79-3.92-25.21-8.84-37.7-13.57-4.2-1.59-9.14-1.72-12.86-3.97-5.4-3.26-11.47-3.7-17.06-5.86-5.3-2.04-10.44-1.79-15.62.33-6.08,2.48-11.75,2.85-16.72-2.64-2.35-2.6-5.83-2.74-9.22-2.85-17.51-.54-34.97,1.08-52.47,1.04-4.32-.01-8.42-.56-12.43-2.27-3.46-1.47-7.12-.99-10.7-.3-17.51,3.38-34.95,3.06-52.51-.06-10.13-1.8-19.89-4.33-29.19-8.75-4.72-2.24-9.17-1.79-13.71,1.45-17.78,12.71-37.99,18.31-59.56,19.95-10.67.81-21.04,3.61-31.52,5.64-14.49,2.81-29.14,5.07-43.35,8.91-11.02,2.98-22.12,5.88-33.17,8.54-10.18,2.45-20.44,4.8-30.64,7.31-11.11,2.73-22.17,5.62-33.22,8.58-4.91,1.31-8.24.31-10.98-3.86-2.6-3.95-3.88-8.36-5.17-12.91-3.12-11.03-6.96-21.86-10.43-32.79-7.56-23.83-14.4-47.92-22.81-71.44C15.33,125.33,9.04,101.29.47,77.99c-1.55-4.21,1.36-8.64-.17-13.02-.36-1.03,1.32-1.52,2.35-1.91,23.28-8.79,46.25-18.59,71.1-22.35,7.64-1.16,15.34-1.92,22.12-1.62ZM144.28,224.21c4.07,2.65,8.05,3.23,13.11,2.02,31.97-7.63,64.08-14.55,96.82-18.4,21.14-2.49,39.64-11.14,53.39-28.16,1.72-2.13,2.88-2,4.89-.17,5.48,5,11.39,9.38,18.42,12.18,10.61,4.23,21.6,6.24,32.94,7.28,19.44,1.77,38.03-.39,55.4-9.9,6.65-3.64,6.69-3.56,7.43,4.17.63,6.54.63,6.61,7.28,6.41,18.9-.57,37.79-1.23,56.7-.92,2.29.04,4.52-.07,5.38,2.66,1.02,3.25,3.11,2.78,5.54,1.79,4.81-1.97,9.68-3.8,14.5-5.75,2.66-1.08,4.39-1.27,3.3,2.55-.56,1.97-.3,3.59,2.18,4.39,19.64,6.35,39.23,12.82,58.55,20.08,2.36.89,3.81.34,4.14-2.02.45-3.2,2.22-3.32,4.7-2.6,3.78,1.1,7.57,2.15,11.37,3.18,22.22,5.98,44.03,13.27,65.79,20.7,1.86.64,4.06,2.44,5.31-1.09,7.42-20.94,14.91-41.85,22.4-62.77.52-1.47.86-2.94-.97-3.53-2.86-.92-2.46-2.65-1.66-4.81,2.48-6.64,4.98-13.28,7.21-20.01,1.08-3.27,2.55-4.4,5.76-2.61,3.43,1.91,5.02.69,6.22-3.04,6.51-20.25,13.24-40.43,20.08-60.56,1.17-3.43.71-4.9-2.91-6.2-38.86-13.99-78.4-25.66-118.58-35.19-3.44-.82-7.4-3.79-10.45,1.08-.24.38-1.51.24-2.27.13-26.31-3.79-52.66-7.35-78.08-15.58-4.28-1.38-8.62-3.54-11.68,2.52-.8-2.29-.16-4.32-3.06-4.73-23.83-3.4-47.7-6.54-71.63-9.12-2.59-.28-3.36.72-3.49,3.08-.23,4.24-.69,8.47-.98,12.71-.15,2.21-.71,3.44-3.15,1.92-17.03-10.61-35.97-13-55.43-12.29-19.62.72-36.8,7.62-50.91,21.7-5.01,5-8.87,10.85-13.22,16.64-1.1-1.41-2-2.48-2.82-3.62-8.95-12.49-21.07-20.08-35.98-23.45-12.8-2.89-25.68-2.61-38.54-.91-17.65,2.33-33.31,8.99-46.06,21.91-7.73,7.83-13.13,17.12-17.89,27.34-5.51-6.12-10.79-11.63-17.62-15.5-21.6-12.26-44.75-13.98-68.72-10.56-18.23,2.6-35.36,8.88-52.49,15.29-3.35,1.26-4.06,2.6-2.95,6.05,12.16,37.94,24.16,75.94,36.19,113.92,5.28,16.66,10.51,33.34,15.83,49.99.73,2.27,1.08,4.78,5.01,3.65,19.81-5.71,39.83-10.67,60.01-14.94,4.31-.91,6.54-2.32,5.69-6.9h0Z"/>
      <path class="cls-1" d="M144.28,224.2c.85,4.59-1.38,5.99-5.69,6.9-20.17,4.27-40.19,9.23-60.01,14.94-3.92,1.13-4.28-1.38-5.01-3.65-5.33-16.65-10.56-33.32-15.83-49.99-12.03-37.98-24.03-75.98-36.19-113.92-1.11-3.45-.4-4.79,2.95-6.05,17.12-6.41,34.26-12.69,52.49-15.29,23.98-3.42,47.12-1.7,68.72,10.56,6.83,3.88,12.12,9.38,17.62,15.5,4.77-10.22,10.16-19.51,17.89-27.34,12.75-12.91,28.4-19.57,46.06-21.91,12.86-1.7,25.75-1.99,38.54.91,14.91,3.37,27.03,10.96,35.98,23.45.82,1.14,1.72,2.22,2.82,3.62,4.35-5.79,8.21-11.64,13.22-16.64,14.11-14.08,31.29-20.97,50.91-21.7,19.46-.72,38.41,1.68,55.43,12.29,2.44,1.52,2.99.29,3.15-1.92.3-4.24.75-8.47.98-12.71.13-2.36.9-3.36,3.49-3.08,23.94,2.58,47.8,5.71,71.63,9.12,2.89.41,2.25,2.44,3.06,4.73,3.06-6.06,7.41-3.91,11.68-2.52,25.42,8.23,51.77,11.79,78.08,15.58.76.11,2.03.25,2.27-.13,3.05-4.87,7.01-1.9,10.45-1.08,40.17,9.54,79.72,21.2,118.58,35.19,3.62,1.3,4.08,2.77,2.91,6.2-6.84,20.14-13.56,40.32-20.08,60.56-1.2,3.73-2.79,4.95-6.22,3.04-3.21-1.79-4.68-.67-5.76,2.61-2.22,6.73-4.73,13.37-7.21,20.01-.81,2.16-1.2,3.89,1.66,4.81,1.84.59,1.5,2.06.97,3.53-7.49,20.91-14.98,41.83-22.4,62.77-1.25,3.53-3.45,1.73-5.31,1.09-21.76-7.43-43.57-14.73-65.79-20.7-3.8-1.02-7.59-2.08-11.37-3.18-2.48-.72-4.25-.59-4.7,2.6-.33,2.35-1.78,2.9-4.14,2.02-19.32-7.26-38.91-13.74-58.55-20.08-2.48-.8-2.75-2.42-2.18-4.39,1.09-3.82-.64-3.63-3.3-2.55-4.82,1.95-9.69,3.78-14.5,5.75-2.43.99-4.52,1.46-5.54-1.79-.86-2.73-3.09-2.62-5.38-2.66-18.91-.31-37.81.35-56.7.92-6.65.2-6.65.13-7.28-6.41-.75-7.73-.79-7.81-7.43-4.17-17.37,9.51-35.97,11.67-55.4,9.9-11.34-1.03-22.33-3.05-32.94-7.28-7.03-2.8-12.94-7.18-18.42-12.18-2.01-1.83-3.17-1.96-4.89.17-13.75,17.02-32.24,25.68-53.39,28.16-32.74,3.85-64.84,10.77-96.82,18.4-5.06,1.21-9.04.63-13.11-2.02-.05-.1-.09-.22-.17-.31-.04-.05-.16-.03-.24-.04.14.11.27.23.41.34ZM174.3,124.72c.06,10.43,1.52,20.59,5,30.42,6.2,17.53,21.73,34.3,43.08,35.76,10.48.72,20.79.14,31.12-1.21,31.12-4.07,51.88-26.27,52.88-57.6.69-21.52-6.13-41.27-16.84-59.74-7.16-12.36-18.22-18.71-32.14-20.82-6.3-.95-12.6-.97-18.87-.62-15.42.87-30.04,4.41-41.82,15.2-17.2,15.77-22.47,36.21-22.41,58.61ZM374.14,181.49c4.09-.22,8.2-.3,12.27-.68,16-1.47,29.57-8.38,39.71-20.52,9.55-11.43,13.43-25.5,13.65-40.34.24-16.5-3.09-32.44-8.89-47.84-4.89-12.97-13.86-21.75-27.18-26.18-8.18-2.72-16.55-3.84-25.06-4.31-21.42-1.19-40,4.71-53.2,22.61-18.54,25.15-21.43,53.07-12.37,82.21,4.76,15.3,15,26.29,31.17,30.92,9.81,2.81,19.78,3.78,29.89,4.13ZM112.7,182.22c2.5,1.36,3.91,2.01,5.2,2.84,10.85,7,21.71,14,32.51,21.09,2.08,1.37,4.02,2.14,6.6,1.55,11.36-2.58,22.76-4.97,34.12-7.55,1.28-.29,3.34-.05,3.68-1.53.41-1.77-1.58-2.49-2.79-3.39-18.05-13.5-36.59-26.3-55.63-38.38-5.08-3.22-5.12-3.25-1.55-8.08,6.3-8.53,11.73-17.54,15.36-27.55,5.94-16.38.9-30.01-14.3-38.5-5.95-3.33-12.27-5.78-18.94-7.16-24.67-5.09-48.2-.11-71.34,8.24-3.65,1.32-2.55,3.68-1.77,6.12,4.77,15.01,9.51,30.03,14.29,45.03,9.09,28.51,18.28,56.99,27.2,85.55,1.2,3.83,2.93,4.46,6.41,3.48,6.52-1.82,13.11-3.37,19.67-5.07,11.03-2.85,10.99-2.84,7.72-13.97-2.11-7.18-4.1-14.4-6.46-22.71ZM615.82,64.02c-2.02-.34-2.94.8-3.41,2.5-.72,2.58-1.44,5.15-2.11,7.75-10.15,39.52-20.23,79.05-30.52,118.54-1.17,4.5-.35,6.33,4.4,7.46,24.07,5.74,47.76,12.85,71.16,20.9,3.43,1.18,4.76.22,5.82-2.97,2.74-8.22,5.51-16.45,8.74-24.48,1.7-4.21,1.02-6.15-3.44-7.41-11.98-3.36-23.91-6.92-35.79-10.63-12.48-3.89-10.43-.97-7.64-12.74.22-.92.62-1.81.73-2.74.5-4.11,2.43-5.11,6.43-3.78,12.55,4.19,25.25,7.95,37.77,12.21,3.63,1.23,5.17.34,6.29-3.06,1.88-5.68,3.98-11.3,6.1-16.9,2.55-6.74,2.63-6.8-4.06-8.81-13.13-3.94-26.26-7.88-39.45-11.62-3.12-.89-4.12-2.17-3.02-5.31,1.03-2.97,1.91-6.04,2.4-9.13.75-4.77,3.07-5.2,7.26-3.87,16.37,5.18,32.85,10.01,49,15.87,3.49,1.27,5.37.94,6.56-3.05,2.52-8.45,5.54-16.75,8.34-25.12,1.96-5.84,1.85-5.91-4.06-7.97-22.04-7.67-44.45-14.11-66.89-20.45-6.82-1.93-13.74-3.48-20.61-5.21ZM478.89,97.77c-.5-4.46-.15-7.98.2-11.51,1.33-13.32,3.15-26.58,5.36-39.79.38-2.29.14-3.65-2.43-3.97-10.45-1.31-20.92-2.51-31.33-4.09-4.77-.72-6.16,1.3-6.32,5.57-.28,7.24-.85,14.48-1.18,21.72-1.7,36.88-1.5,73.75.8,110.61.22,3.58,1.44,5.04,5.16,4.88,7.24-.32,14.5-.3,21.76-.36,6.14-.05,6.23-.05,5.94-6-.55-11.65-1.3-23.29-.97-34.96.13-4.48-.11-9,1.37-13.52,1.8,1.14,2.34,2.85,3.16,4.3,8.7,15.37,16.62,31.15,24.31,47.03,1.41,2.92,2.79,4.01,6.13,2.69,9.53-3.75,19.11-7.37,28.82-10.62,4.13-1.39,3.89-2.78,1.59-5.78-11.13-14.5-22.44-28.85-34.37-42.7q-5.22-6.06.07-11.77c11.46-12.38,23.06-24.63,35.14-36.41,4.59-4.48,9.27-8.89,14.64-14.03-13.48-4.34-25.74-7.7-38.09-10.78-1.92-.48-2.77,1.04-3.74,2.3-5.9,7.59-11.89,15.11-17.72,22.75-6,7.86-11.85,15.83-18.29,24.44ZM566.67,58.58c-1.57-.49-2.08,1.35-2.34,3.66-.9,7.98-1.7,15.98-2.84,23.93-4.84,33.86-11.65,67.33-20.13,100.46-.98,3.83-.04,5.4,3.55,6.52,7.07,2.2,14.12,4.51,20.99,7.24,4.05,1.6,5.36.53,6.39-3.5,5.81-22.73,11.88-45.4,17.86-68.08,5.18-19.64,10.32-39.3,15.63-58.91.89-3.28.51-5.08-3.14-5.64-11.52-1.76-23.03-3.62-35.97-5.67Z"/>
      <path class="cls-3" d="M174.3,124.72c-.06-22.39,5.21-42.84,22.41-58.61,11.78-10.8,26.39-14.34,41.82-15.2,6.28-.35,12.57-.33,18.87.62,13.92,2.11,24.98,8.46,32.14,20.82,10.7,18.47,17.53,38.22,16.84,59.74-1,31.33-21.77,53.53-52.88,57.6-10.33,1.35-20.63,1.93-31.12,1.21-21.35-1.46-36.88-18.23-43.08-35.76-3.48-9.84-4.94-19.99-5-30.42ZM211.22,124.14c.56,14.08,8.42,24.37,20.41,31.85,5.78,3.61,12.23,3.39,17.99-.2,11.47-7.15,18.59-17.73,20.35-30.98,1.99-14.98-11.57-31.54-27.28-35.06-7.79-1.75-14.35.19-19.78,5.95-7.32,7.77-11.14,17.04-11.7,28.44Z"/>
      <path class="cls-3" d="M374.14,181.49c-10.12-.35-20.08-1.32-29.89-4.13-16.17-4.63-26.41-15.62-31.17-30.92-9.06-29.14-6.17-57.06,12.37-82.21,13.19-17.9,31.78-23.8,53.2-22.61,8.5.47,16.88,1.59,25.06,4.31,13.32,4.43,22.29,13.2,27.18,26.18,5.8,15.4,9.14,31.34,8.89,47.84-.22,14.85-4.1,28.91-13.65,40.34-10.14,12.14-23.72,19.05-39.71,20.52-4.08.37-8.18.46-12.27.68ZM345.64,109.58c-.29,15.07,6.05,28.3,14.94,34.95,5.52,4.13,11.78,5.54,18.25,2.73,13.13-5.69,21.51-15.9,24.96-29.54,3.01-11.92-5.55-27.21-18.16-34.65-9.02-5.33-17.5-5.12-25.38,1.63-8.81,7.53-14.19,17.13-14.61,24.87Z"/>
      <path class="cls-3" d="M112.7,182.22c2.36,8.32,4.35,15.53,6.46,22.71,3.27,11.13,3.31,11.13-7.72,13.97-6.56,1.69-13.15,3.24-19.67,5.07-3.48.97-5.21.35-6.41-3.48-8.93-28.56-18.12-57.04-27.2-85.55-4.78-15-9.53-30.02-14.29-45.03-.78-2.44-1.88-4.8,1.77-6.12,23.14-8.35,46.67-13.33,71.34-8.24,6.67,1.38,12.99,3.83,18.94,7.16,15.19,8.5,20.24,22.12,14.3,38.5-3.63,10.01-9.06,19.02-15.36,27.55-3.57,4.83-3.53,4.86,1.55,8.08,19.03,12.08,37.58,24.87,55.63,38.38,1.21.9,3.2,1.62,2.79,3.39-.35,1.48-2.4,1.24-3.68,1.53-11.36,2.58-22.76,4.97-34.12,7.55-2.58.59-4.52-.18-6.6-1.55-10.79-7.09-21.65-14.09-32.51-21.09-1.29-.83-2.69-1.48-5.2-2.84ZM99.72,102.23c-2.41.26-4.75.63-7.1.73-2.46.1-2.92,1.29-2.3,3.38,2.84,9.65,5.68,19.3,8.49,28.96.57,1.97,1.61,2.79,3.32,1.3,5.46-4.76,11.08-9.47,14.28-16.16,3.67-7.67-.06-15.23-8.31-17.08-2.75-.62-5.6-.77-8.37-1.13Z"/>
      <path class="cls-3" d="M615.82,64.02c6.87,1.72,13.79,3.28,20.61,5.21,22.44,6.34,44.85,12.77,66.89,20.45,5.91,2.06,6.02,2.13,4.06,7.97-2.8,8.37-5.81,16.67-8.34,25.12-1.19,3.99-3.06,4.31-6.56,3.05-16.14-5.86-32.63-10.69-49-15.87-4.19-1.33-6.52-.9-7.26,3.87-.48,3.1-1.36,6.17-2.4,9.13-1.09,3.14-.1,4.42,3.02,5.31,13.19,3.74,26.32,7.67,39.45,11.62,6.69,2.01,6.61,2.07,4.06,8.81-2.12,5.6-4.22,11.21-6.1,16.9-1.12,3.4-2.66,4.29-6.29,3.06-12.53-4.26-25.22-8.02-37.77-12.21-4-1.33-5.93-.33-6.43,3.78-.11.93-.51,1.82-.73,2.74-2.79,11.76-4.84,8.84,7.64,12.74,11.88,3.71,23.81,7.27,35.79,10.63,4.46,1.25,5.13,3.2,3.44,7.41-3.24,8.03-6,16.26-8.74,24.48-1.06,3.19-2.4,4.14-5.82,2.97-23.4-8.05-47.09-15.16-71.16-20.9-4.75-1.13-5.58-2.96-4.4-7.46,10.28-39.48,20.37-79.02,30.52-118.54.67-2.59,1.39-5.17,2.11-7.75.48-1.7,1.39-2.84,3.41-2.5Z"/>
      <path class="cls-3" d="M478.89,97.77c6.44-8.62,12.29-16.59,18.29-24.44,5.83-7.64,11.82-15.16,17.72-22.75.98-1.25,1.82-2.77,3.74-2.3,12.35,3.07,24.61,6.43,38.09,10.78-5.37,5.14-10.05,9.54-14.64,14.03-12.08,11.79-23.68,24.03-35.14,36.41q-5.3,5.73-.07,11.77c11.93,13.85,23.24,28.21,34.37,42.7,2.3,3,2.54,4.39-1.59,5.78-9.7,3.26-19.29,6.88-28.82,10.62-3.34,1.31-4.72.23-6.13-2.69-7.7-15.89-15.61-31.67-24.31-47.03-.82-1.45-1.36-3.15-3.16-4.3-1.47,4.52-1.24,9.05-1.37,13.52-.33,11.67.42,23.31.97,34.96.28,5.95.2,5.96-5.94,6-7.25.05-14.51.04-21.76.36-3.72.16-4.94-1.3-5.16-4.88-2.3-36.86-2.51-73.73-.8-110.61.33-7.24.91-14.47,1.18-21.72.16-4.26,1.55-6.29,6.32-5.57,10.41,1.58,20.88,2.78,31.33,4.09,2.57.32,2.81,1.68,2.43,3.97-2.21,13.2-4.03,26.46-5.36,39.79-.35,3.53-.71,7.05-.2,11.51Z"/>
      <path class="cls-3" d="M566.67,58.58c12.95,2.05,24.45,3.91,35.97,5.67,3.65.56,4.03,2.36,3.14,5.64-5.31,19.61-10.44,39.27-15.63,58.91-5.99,22.69-12.06,45.35-17.86,68.08-1.03,4.03-2.34,5.1-6.39,3.5-6.88-2.72-13.93-5.04-20.99-7.24-3.59-1.12-4.53-2.7-3.55-6.52,8.49-33.12,15.29-66.6,20.13-100.46,1.14-7.95,1.93-15.95,2.84-23.93.26-2.31.78-4.15,2.34-3.66Z"/>
      <path class="cls-2" d="M144.28,224.2c-.14-.11-.27-.23-.41-.34.08.01.19,0,.24.04.08.08.11.2.17.31h0Z"/>
      <path class="cls-1" d="M211.22,124.14c.56-11.41,4.38-20.67,11.7-28.44,5.43-5.77,11.99-7.7,19.78-5.95,15.71,3.52,29.27,20.08,27.28,35.06-1.76,13.25-8.89,23.82-20.35,30.98-5.77,3.6-12.21,3.81-17.99.2-11.99-7.47-19.86-17.77-20.41-31.85Z"/>
      <path class="cls-1" d="M345.64,109.58c.42-7.75,5.8-17.34,14.61-24.87,7.89-6.74,16.36-6.95,25.38-1.63,12.61,7.44,21.17,22.74,18.16,34.65-3.45,13.63-11.83,23.85-24.96,29.54-6.47,2.8-12.73,1.39-18.25-2.73-8.89-6.65-15.23-19.89-14.94-34.95Z"/>
      <path class="cls-1" d="M99.72,102.23c2.77.36,5.62.51,8.37,1.13,8.25,1.85,11.98,9.42,8.31,17.08-3.2,6.69-8.82,11.4-14.28,16.16-1.71,1.49-2.75.67-3.32-1.3-2.81-9.66-5.65-19.31-8.49-28.96-.61-2.09-.16-3.28,2.3-3.38,2.35-.09,4.69-.47,7.1-.73Z"/>
    </g>
  </g>
</svg>